<?xml version="1.0" standalone="no"?>
<!DOCTYPE svg PUBLIC "-//W3C//DTD SVG 20010904//EN"
 "http://www.w3.org/TR/2001/REC-SVG-20010904/DTD/svg10.dtd">
<svg version="1.0" xmlns="http://www.w3.org/2000/svg"
 width="279.000000pt" height="279.000000pt" viewBox="0 0 279.000000 279.000000"
 preserveAspectRatio="xMidYMid meet">
<metadata>
Created by potrace 1.11, written by Peter Selinger 2001-2013
</metadata>
<g transform="translate(0.000000,279.000000) scale(0.100000,-0.100000)"
fill="#000000" stroke="none">
<path d="M1260 2774 c-340 -43 -611 -173 -841 -403 -198 -199 -322 -427 -380
-701 -29 -138 -32 -390 -5 -524 57 -290 182 -524 390 -731 256 -254 556 -385
916 -401 231 -11 438 31 646 130 404 193 676 541 771 986 28 133 26 411 -5
549 -63 281 -193 513 -397 709 -258 249 -568 378 -925 387 -74 2 -151 1 -170
-1z m535 -919 l360 -203 3 -471 2 -471 -85 0 -85 0 0 385 0 385 -575 0 -575 0
-2 -382 -3 -383 -87 -3 -88 -3 0 469 0 470 363 205 c199 113 373 205 387 206
15 0 175 -85 385 -204z m103 -543 l3 -52 -488 2 -488 3 -3 39 c-6 71 -44 66
490 64 l483 -3 3 -53z m2 -182 l0 -50 -490 0 -490 0 0 50 0 50 490 0 490 0 0
-50z m0 -185 l0 -55 -487 2 -488 3 -3 39 c-6 71 -43 66 493 66 l485 0 0 -55z"/>
<path d="M990 1625 l0 -35 86 0 85 0 -3 33 -3 32 -82 3 -83 3 0 -36z"/>
<path d="M1324 1636 c-10 -40 2 -46 92 -46 l85 0 -3 33 -3 32 -82 3 c-80 3
-83 2 -89 -22z"/>
<path d="M1666 1642 c-14 -43 1 -52 91 -52 l84 0 -3 33 -3 32 -82 3 c-73 2
-82 1 -87 -16z"/>
</g>
</svg>
